<?xml version="1.0" standalone="no"?>
<!DOCTYPE svg PUBLIC "-//W3C//DTD SVG 20010904//EN" "http://www.w3.org/TR/2001/REC-SVG-20010904/DTD/svg10.dtd">
<svg version="1.0" xmlns="http://www.w3.org/2000/svg" width="740.000000pt" height="1280.000000pt"
    viewBox="0 0 740.000000 1280.000000" preserveAspectRatio="xMidYMid meet">
    <metadata> Created by potrace 1.15, written by Peter Selinger 2001-2017 </metadata>
    <g transform="translate(0.000000,1280.000000) scale(0.100000,-0.100000)" fill="#FFFFFF"
        stroke="none">
        <!-- Here, I changed the fill color to white (hex color code: #FFFFFF) -->
        <path
            d="M4095 12786 c-177 -56 -398 -251 -557 -491 -84 -126 -250 -453 -313 -615 -175 -448 -253 -861 -258 -1364 l-2 -218 -185 -147 c-102 -81 -304 -239 -450 -351 -786 -604 -1125 -913 -1447 -1315 -275 -344 -495 -740 -635 -1145 -16 -47 -34 -89 -39 -94 -5 -6 -19 0 -35 15 -24 22 -26 30 -22 86 4 66 23 107 23 50 0 -27 4 -32 24 -32 19 0 30 11 49 48 33 63 41 141 17 151 -29 11 -59 -18 -95 -91 -28 -55 -35 -82 -38 -144 -4 -80 2 -95 52 -124 14 -8 16 -15 7 -37 -56 -148 -136 -560 -173 -888 -17 -154 -17 -745 0 -910 56 -535 177 -1036 364 -1505 74 -186 263 -571 356 -727 276 -461 586 -819 943 -1088 64 -48 124 -92 134 -98 17 -9 17 -11 -2 -38 -12 -16 -30 -38 -42 -48 -12 -11 -21 -25 -21 -31 0 -7 -13 -42 -30 -78 -61 -136 -75 -205 -74 -392 0 -142 3 -184 22 -252 105 -400 377 -695 770 -837 284 -102 693 -100 1015 5 197 64 353 157 494 292 219 211 330 460 366 822 l12 117 85 25 c390 112 710 275 1192 608 293 203 523 436 864 875 302 391 541 843 674 1277 39 127 31 122 127 77 73 -35 98 -73 98 -149 -1 -33 -7 -71 -15 -85 -14 -25 -15 -24 -20 26 -6 58 -20 79 -56 88 -67 17 -145 -109 -114 -183 16 -39 63 -64 105 -57 67 13 135 127 135 225 -1 49 -30 111 -69 143 -17 15 -57 35 -87 45 -64 20 -62 -4 -21 198 41 197 52 316 51 550 0 157 -5 251 -17 330 -53 335 -138 598 -284 875 -522 991 -1391 1642 -2393 1791 -169 25 -508 30 -675 10 -113 -13 -330 -54 -400 -75 -39 -12 -47 -12 -52 -1 -2 8 -3 18 -1 23 1 6 68 69 148 142 257 235 549 536 649 668 340 450 508 884 576 1487 64 579 58 947 -25 1401 -86 466 -256 870 -459 1087 -82 86 -144 105 -246 73z m168 -1112 c3 -5 1 -38 -4 -73 -6 -40 -9 -77 -6 -81 3 -3 9 -1 13 4 3 5 2 30 -2 56 -10 61 -8 86 5 94 6 3 13 2 15 0z m-760 -443 c86 -50 181 -151 232 -245 41 -70 110 -206 110 -218 0 -3 -27 10 -60 29 -33 18 -76 43 -96 56 -59 37 -295 184 -310 184 -7 0 64 -62 154 -138 87 -73 161 -137 164 -143 3 -6 -12 9 -34 31 -56 58 -159 131 -217 162 -37 19 -36 25 10 66 23 19 63 62 90 96 54 72 94 104 155 130 77 33 194 36 280 7z m89 -273 c17 -5 35 -12 41 -16 16 -10 -74 -120 -115 -136 -28 -10 -118 24 -143 53 -17 19 -18 27 -6 69 11 39 31 71 60 98 30 29 67 42 123 42 38 0 63 -5 78 -10z m-110 -320 c52 -36 77 -84 58 -126 -11 -23 -15 -23 -64 -17 -60 7 -94 30 -94 65 0 35 39 78 77 78 10 0 34 -9 52 -20z m106 -104 c23 -24 26 -39 16 -78 -12 -46 -11 -67 4 -110 19 -58 15 -72 -31 -128 -30 -33 -39 -49 -32 -59 10 -15 62 -15 76 0 18 22 81 133 89 156 10 30 6 50 -14 75 -23 30 -25 38 -12 66 18 38 19 38 60 8z m-104 -201 c0 -6 -11 -18 -25 -27 -25 -15 -27 -15 -37 5 -18 32 -22 51 -14 70 6 12 14 15 31 10 14 -3 25 -11 25 -18z m-89 -83 c38 -23 47 -66 20 -108 -23 -34 -71 -44 -103 -21 -13 9 -25 16 -28 16 -2 0 7 -18 20 -40 15 -22 30 -44 34 -50 4 -6 -3 -6 -16 0 -28 11 -50 59 -50 114 0 30 5 52 13 57 14 9 108 20 110 13 0 -3 -7 -16 -16 -29 -17 -25 -17 -25 -17 -1 0 24 6 36 22 43 22 9 25 9 42 -14z" />
    </g>
</svg>